<svg width="200" height="200" viewBox="0 0 200 200" fill="none" xmlns="http://www.w3.org/2000/svg">
<g clip-path="url(#clip0)">
<circle cx="100" cy="96" r="100" fill="#F5C002"/>
<path d="M168.229 190.074V204H32V190.074C32 172.546 46.2593 158.287 63.7871 158.287H136.442C153.971 158.287 168.229 172.546 168.229 190.074Z" fill="#384949"/>
<path d="M168.229 190.074V204H100.115V158.287H136.442C153.971 158.287 168.229 172.546 168.229 190.074Z" fill="#293939"/>
<path d="M133.718 62.2908C124.364 53.754 112.648 48.9102 100.115 49.0013C98.4797 49.0013 96.8455 49.0923 95.2112 49.2744C69.9624 51.6348 50.1641 74.6426 50.1641 101.163V117.419C50.1641 126.41 52.5256 134.856 56.7024 142.122C52.7976 144.483 50.1641 148.842 50.1641 153.746C50.1641 171.275 64.4221 185.533 81.9512 185.533H109.197C131.72 185.533 150.065 167.187 150.065 144.664V99.2552C150.065 85.178 144.072 71.7359 133.718 62.2908Z" fill="#4A696F"/>
<path d="M150.065 99.2552V144.664C150.065 167.187 131.72 185.533 109.197 185.533H100.115V49.0013C112.648 48.9102 124.364 53.754 133.718 62.2908C144.072 71.7359 150.065 85.178 150.065 99.2552Z" fill="#384949"/>
<path d="M131.901 131.042C131.901 163.01 115.827 167.369 100.115 167.369C84.4038 167.369 68.3281 163.01 68.3281 131.042C68.3281 128.136 68.4192 125.229 68.7822 122.323H131.448C131.811 125.229 131.901 128.136 131.901 131.042Z" fill="#384949"/>
<path d="M125.726 94.7141L113.737 103.796H86.4922L74.5034 94.7141C80.0437 79.0027 89.1257 67.468 100.115 67.468C111.104 67.468 120.186 79.0027 125.726 94.7141Z" fill="#384949"/>
<path d="M113.737 103.796H100.115V67.468C111.105 67.468 120.186 79.0027 125.726 94.7141L113.737 103.796Z" fill="#293939"/>
<path d="M131.901 131.042C131.901 163.01 115.827 167.369 100.115 167.369V122.323H131.447C131.811 125.229 131.901 128.136 131.901 131.042Z" fill="#293939"/>
<path d="M131.447 122.323C129.177 137.581 116.008 149.205 100.115 149.205C84.2217 149.205 71.0527 137.581 68.7822 122.323C69.2363 115.512 70.4165 108.7 72.1419 102.343C72.7781 99.708 73.5952 97.1655 74.5034 94.7141H125.726C126.634 97.1655 127.451 99.708 128.087 102.343C129.813 108.7 130.994 115.512 131.447 122.323Z" fill="#DBA974"/>
<path d="M131.447 122.323C129.177 137.581 116.008 149.205 100.115 149.205V94.7141H125.726C126.634 97.1667 127.451 99.7092 128.087 102.343C129.813 108.7 130.994 115.512 131.447 122.323Z" fill="#DBA974"/>
</g>
<defs>
<clipPath id="clip0">
<rect width="200" height="200" fill="white"/>
</clipPath>
</defs>
</svg>
