<svg width="62" height="46" viewBox="0 0 62 46" fill="none" xmlns="http://www.w3.org/2000/svg">
<path d="M48.1352 41.8744C48.1352 39.6054 46.6022 37.7489 44.7286 37.7489H3.40659C1.53297 37.7489 0 39.6054 0 41.8744C0 44.1435 1.53297 46 3.40659 46H44.7286C46.6022 46 48.1352 44.1848 48.1352 41.8744ZM10.322 26.9812L51.644 27.27C53.5176 27.27 55.0505 25.4547 55.0846 23.1857C55.1187 20.8753 53.5857 19.0188 51.7121 19.0188L10.3901 18.7301C10.356 18.7301 10.356 18.7301 10.356 18.7301C8.48242 18.7301 6.94945 20.5453 6.94945 22.8143C6.91538 25.1247 8.44835 26.9812 10.322 26.9812ZM17.2714 8.25112H58.5934C60.467 8.25112 62 6.39462 62 4.12556C62 1.8565 60.467 0 58.5934 0H17.2714C15.3978 0 13.8648 1.8565 13.8648 4.12556C13.8648 6.39462 15.3978 8.25112 17.2714 8.25112Z" fill="white"/>
</svg>
