<svg width="42" height="51" viewBox="0 0 42 51" fill="none" xmlns="http://www.w3.org/2000/svg">
<path d="M0 44.7949H42V50.7949H0V44.7949Z" fill="white"/>
<path d="M39.7969 18.3984C39.7969 28.541 31.543 36.7949 21.3984 36.7949C20.6055 36.7949 19.8242 36.7441 19.0586 36.6465H19.0508C10.0098 35.4883 3 27.7461 3 18.3984C3 9.04883 10.0098 1.30664 19.0508 0.148439H19.0586C19.8242 0.0507832 20.6055 0 21.3984 0C31.543 0 39.7969 8.25391 39.7969 18.3984Z" fill="white"/>
<path d="M39.7969 18.3984C39.7969 28.541 31.543 36.7949 21.3984 36.7949C20.6055 36.7949 19.8242 36.7441 19.0586 36.6465C28.0996 35.4883 35.1094 27.7461 35.1094 18.3984C35.1094 9.04883 28.0996 1.30664 19.0586 0.148439C19.8242 0.0507832 20.6055 0 21.3984 0C31.543 0 39.7969 8.25391 39.7969 18.3984Z" fill="white"/>
<path d="M28.8397 16.9898C28.2676 17.5621 27.3401 17.5619 26.7682 16.99L22.8631 13.0852V27.2465C22.8631 28.0557 22.2073 28.7113 21.3983 28.7113C20.5893 28.7113 19.9335 28.0557 19.9335 27.2465V13.0852L16.0284 16.99C15.4563 17.5619 14.5288 17.5621 13.9569 16.9898C13.3848 16.4178 13.3848 15.4902 13.9569 14.9184L20.3626 8.51289C20.6485 8.22696 21.0235 8.08398 21.3983 8.08398C21.7731 8.08398 22.1481 8.22696 22.434 8.51289L28.8397 14.9184C29.4118 15.4902 29.4118 16.4178 28.8397 16.9898Z" fill="#07244F"/>
</svg>
