<svg width="100" height="100" viewBox="0 0 100 100" fill="none" xmlns="http://www.w3.org/2000/svg">
<path d="M33.3333 71.6667H30C29.0796 71.6667 28.3333 72.4129 28.3333 73.3333C28.3333 74.2537 29.0796 75 30 75H33.3333C34.2538 75 35 74.2537 35 73.3333C35 72.4129 34.2538 71.6667 33.3333 71.6667Z" fill="black"/>
<path d="M80 71.6667H40C39.0796 71.6667 38.3333 72.4129 38.3333 73.3333C38.3333 74.2537 39.0796 75 40 75H80C80.9204 75 81.6667 74.2537 81.6667 73.3333C81.6667 72.4129 80.9204 71.6667 80 71.6667Z" fill="black"/>
<path d="M33.3333 61.6667H30C29.0796 61.6667 28.3333 62.4129 28.3333 63.3333C28.3333 64.2538 29.0796 65 30 65H33.3333C34.2538 65 35 64.2538 35 63.3333C35 62.4129 34.2538 61.6667 33.3333 61.6667Z" fill="black"/>
<path d="M80 61.6667H40C39.0796 61.6667 38.3333 62.4129 38.3333 63.3333C38.3333 64.2538 39.0796 65 40 65H80C80.9204 65 81.6667 64.2538 81.6667 63.3333C81.6667 62.4129 80.9204 61.6667 80 61.6667Z" fill="black"/>
<path d="M33.3333 51.6667H30C29.0796 51.6667 28.3333 52.4129 28.3333 53.3333C28.3333 54.2537 29.0796 55 30 55H33.3333C34.2538 55 35 54.2537 35 53.3333C35 52.4129 34.2538 51.6667 33.3333 51.6667Z" fill="black"/>
<path d="M80 51.6667H40C39.0796 51.6667 38.3333 52.4129 38.3333 53.3333C38.3333 54.2537 39.0796 55 40 55H80C80.9204 55 81.6667 54.2537 81.6667 53.3333C81.6667 52.4129 80.9204 51.6667 80 51.6667Z" fill="black"/>
<path d="M33.3333 41.6667H30C29.0796 41.6667 28.3333 42.4129 28.3333 43.3333C28.3333 44.2537 29.0796 45 30 45H33.3333C34.2538 45 35 44.2537 35 43.3333C35 42.4129 34.2538 41.6667 33.3333 41.6667Z" fill="black"/>
<path d="M80 41.6667H40C39.0796 41.6667 38.3333 42.4129 38.3333 43.3333C38.3333 44.2537 39.0796 45 40 45H80C80.9204 45 81.6667 44.2537 81.6667 43.3333C81.6667 42.4129 80.9204 41.6667 80 41.6667Z" fill="black"/>
<path d="M33.3333 31.6667H30C29.0796 31.6667 28.3333 32.4129 28.3333 33.3333C28.3333 34.2537 29.0796 35 30 35H33.3333C34.2538 35 35 34.2537 35 33.3333C35 32.4129 34.2538 31.6667 33.3333 31.6667Z" fill="black"/>
<path d="M80 31.6667H40C39.0796 31.6667 38.3333 32.4129 38.3333 33.3333C38.3333 34.2537 39.0796 35 40 35H80C80.9204 35 81.6667 34.2537 81.6667 33.3333C81.6667 32.4129 80.9204 31.6667 80 31.6667Z" fill="black"/>
<path d="M91.645 24.895C91.6367 24.749 91.6081 24.6048 91.56 24.4667C91.5417 24.4133 91.5284 24.3617 91.505 24.31C91.424 24.1287 91.3111 23.9633 91.1717 23.8217L67.8383 0.488333C67.6967 0.348958 67.5313 0.236042 67.35 0.155C67.2983 0.131667 67.2467 0.118333 67.195 0.1C67.0556 0.0520833 66.9104 0.0229167 66.7633 0.0133333C66.735 0.0183333 66.7033 0 66.6667 0H20C19.0796 0 18.3333 0.74625 18.3333 1.66667V6.66667H10C9.07959 6.66667 8.33334 7.41292 8.33334 8.33333V98.3333C8.33334 99.2537 9.07959 100 10 100H80C80.9204 100 81.6667 99.2537 81.6667 98.3333V90H90C90.9204 90 91.6667 89.2537 91.6667 88.3333V25C91.6667 24.9633 91.6483 24.9317 91.645 24.895ZM68.3333 5.69L85.9767 23.3333H68.3333V5.69ZM78.3333 96.6667H11.6667V10H18.3333V88.3333C18.3333 89.2537 19.0796 90 20 90H78.3333V96.6667ZM88.3333 86.6667H21.6667V3.33333H65V25C65 25.9204 65.7463 26.6667 66.6667 26.6667H88.3333V86.6667Z" fill="black"/>
<path d="M40 15H30C29.0796 15 28.3333 15.7462 28.3333 16.6667V26.6667C28.3333 27.5871 29.0796 28.3333 30 28.3333H40C40.9204 28.3333 41.6667 27.5871 41.6667 26.6667V16.6667C41.6667 15.7462 40.9204 15 40 15ZM38.3333 25H31.6667V18.3333H38.3333V25Z" fill="black"/>
</svg>
