<svg width="200" height="200" viewBox="0 0 200 200" fill="none" xmlns="http://www.w3.org/2000/svg">
<path d="M100 199.999C155.228 199.999 200 155.227 200 99.9993C200 44.7712 155.228 0 100 0C44.7722 0 0.00100708 44.7712 0.00100708 99.9993C0.00100708 155.227 44.7722 199.999 100 199.999Z" fill="#A6D9EA"/>
<path d="M147.891 161.55C141.445 149.347 100.001 141.689 100.001 141.689C100.001 141.689 58.5565 149.347 52.1105 161.55C47.3458 178.484 43.3603 200 43.3603 200H100.001H156.641C156.641 200 153.949 176.929 147.891 161.55Z" fill="#E4B692"/>
<path d="M100.001 141.689C100.001 141.689 141.445 149.347 147.891 161.55C153.95 176.929 156.641 200 156.641 200H100.001V141.689Z" fill="#E4B692"/>
<path d="M111.283 116.881H88.7182V154.645H111.283V116.881Z" fill="#E4B692"/>
<path d="M111.283 116.881H100.001V154.645H111.283V116.881Z" fill="#E4B692"/>
<path opacity="0.1" d="M88.7182 134.38C90.7476 140.206 98.937 143.545 104.952 143.545C107.128 143.545 109.244 143.18 111.283 142.513V116.881H88.7182V134.38Z" fill="#DDAC8C"/>
<path d="M147.891 161.55C144.125 154.424 128.437 148.852 116.027 145.447C115.542 153.888 108.564 160.588 100.001 160.588C91.4383 160.588 84.4605 153.888 83.9742 145.447C71.5645 148.852 55.8751 154.424 52.1092 161.55C47.3445 178.484 43.3589 200 43.3589 200H99.9993H156.64C156.641 200 153.949 176.929 147.891 161.55Z" fill="#272727"/>
<path d="M129.012 93.0519C129.012 69.4647 116.023 56.0519 100.001 56.0519C83.9784 56.0519 70.9897 69.4647 70.9897 93.0519C70.9897 102.934 74.0124 124.813 79.1736 129.273C82.7171 132.421 94.2842 137.814 99.9413 137.814H99.9427C99.962 137.814 99.9813 137.812 100.002 137.812C100.021 137.812 100.041 137.814 100.059 137.814H100.061C105.72 137.814 117.287 132.423 120.829 129.273C126.195 123.606 129.012 102.123 129.012 93.0519Z" fill="#E4B692"/>
<path d="M100.002 137.812C100.021 137.812 100.041 137.814 100.059 137.814H100.061C105.72 137.814 117.287 132.423 120.829 129.273C126.195 123.605 129.012 102.123 129.012 93.0519C129.012 69.4647 116.023 56.0519 100.001 56.0519L100.002 137.812Z" fill="#E4B692"/>
<path d="M124.595 109.409C119.336 108.859 115.785 103.192 116.676 96.7598C117.556 90.3221 122.537 85.5422 127.799 86.0893C133.055 86.6363 136.6 92.3004 135.713 98.738C134.83 105.177 129.854 109.953 124.595 109.409Z" fill="#E4B692"/>
<path d="M64.4941 98.7395C63.6058 92.3018 67.152 86.6378 72.4057 86.0907C77.6692 85.5423 82.6508 90.3222 83.5335 96.7612C84.4218 103.193 80.8673 108.86 75.6122 109.41C70.3515 109.953 65.3754 105.177 64.4941 98.7395Z" fill="#E4B692"/>
<path d="M52.1105 161.55C47.3458 178.484 43.3603 200 43.3603 200H84.4964C77.5145 169.186 77.2451 147.472 77.2451 147.431C66.4419 150.851 55.2175 155.67 52.1105 161.55Z" fill="black"/>
<path d="M147.891 161.55C154.342 177.482 156.641 200 156.641 200H115.504C122.486 169.186 122.755 147.472 122.755 147.431C133.559 150.851 144.784 155.67 147.891 161.55Z" fill="black"/>
<path d="M72.765 108.757C72.765 108.757 77.0019 123.029 81.5898 125.452C83.7076 125.452 85.2963 125.452 85.2963 125.452L89.8828 118.952L99.9413 116.149V137.816H86.8822L73.8245 126.09L72.765 108.757Z" fill="#272727"/>
<path d="M127.177 108.757C127.177 108.757 122.94 123.029 118.352 125.452C116.234 125.452 114.646 125.452 114.646 125.452L110.059 118.952L100.001 116.149V137.816H113.06L126.117 126.09L127.177 108.757Z" fill="#272727"/>
<path d="M104.653 123.284C104.653 123.284 103.963 120.209 99.933 120.209C96.2486 120.209 95.2125 123.284 95.2125 123.284H104.653Z" fill="#272727"/>
<path d="M71.0354 86.157C71.0354 86.157 74.88 86.9569 77.3639 89.8441C76.926 84.7921 75.9548 68.01 82.0885 63.7992C88.2223 59.5899 91.0916 63.9802 100.001 63.9802C100.001 57.3643 100.001 51.71 100.001 51.71C100.001 51.71 89.2929 51.71 85.5201 51.71C81.7459 51.71 69.7699 53.5142 69.7699 64.8215C69.7685 76.1303 71.0354 86.157 71.0354 86.157Z" fill="#272727"/>
<path d="M128.965 86.157C128.965 86.157 125.12 86.9569 122.636 89.8441C123.074 84.7921 124.045 68.01 117.911 63.7992C111.779 59.5899 108.908 63.9802 99.9993 63.9802C99.9993 57.3643 99.9993 51.71 99.9993 51.71C99.9993 51.71 110.707 51.71 114.48 51.71C118.254 51.71 130.23 53.5142 130.23 64.8215C130.231 76.1303 128.965 86.157 128.965 86.157Z" fill="#272727"/>
</svg>
