<svg width="200" height="200" viewBox="0 0 200 200" fill="none" xmlns="http://www.w3.org/2000/svg">
<path d="M100 199.999C155.228 199.999 200 155.227 200 99.9993C200 44.7712 155.228 0 100 0C44.7722 0 0.000999451 44.7712 0.000999451 99.9993C0.000999451 155.227 44.7722 199.999 100 199.999Z" fill="#F5C002"/>
<path d="M101.421 45.6328C101.421 45.6328 87.4279 42.3408 75.4961 51.3922C63.5643 60.445 69.8998 73.3258 58.3783 83.6123C46.8596 93.8987 48.5035 103.155 54.8818 114.469C61.2573 125.783 46.8416 131.071 50.9073 144.879C54.85 158.263 68.8692 165.108 68.8692 165.108H131.613C131.613 165.108 151.845 150.15 152.872 139.247C153.9 128.343 142.522 122.914 145.814 115.302C149.104 107.69 149.341 97.014 141.772 88.6671C132.442 78.3806 139.668 76.2338 132.642 62.013C124.533 45.6024 112.728 42.0424 101.421 45.6328Z" fill="#231307"/>
<path d="M147.891 161.55C141.445 149.347 100.001 141.689 100.001 141.689C100.001 141.689 58.5565 149.347 52.1105 161.55C47.3458 178.484 43.3603 200 43.3603 200H100.001H156.641C156.641 200 153.949 176.929 147.891 161.55Z" fill="#E4B692"/>
<path d="M100.001 141.689C100.001 141.689 141.445 149.347 147.891 161.55C153.949 176.929 156.641 200 156.641 200H100.001V141.689Z" fill="#E4B692"/>
<path d="M111.282 116.881H88.7168V154.645H111.282V116.881Z" fill="#E4B692"/>
<path d="M111.282 116.881H100.001V154.645H111.282V116.881Z" fill="#E4B692"/>
<path opacity="0.1" d="M88.7168 134.38C90.7462 140.206 98.937 143.545 104.952 143.545C107.126 143.545 109.246 143.18 111.282 142.513V116.881H88.7168V134.38Z" fill="#DDAC8C"/>
<path d="M129.012 93.0519C129.012 69.4646 116.023 56.0519 100.001 56.0519C83.9784 56.0519 70.9898 69.4646 70.9898 93.0519C70.9898 116.639 83.9784 135.763 100.001 135.763C116.023 135.763 129.012 116.641 129.012 93.0519Z" fill="#E4B692"/>
<path d="M124.595 109.406C119.336 108.82 115.785 102.798 116.676 95.9612C117.556 89.1188 122.537 84.0391 127.799 84.6207C133.055 85.2037 136.6 91.2228 135.713 98.0652C134.829 104.908 129.854 109.983 124.595 109.406Z" fill="#E4B692"/>
<path d="M64.4927 98.0652C63.6044 91.2228 67.1506 85.2023 72.4044 84.6207C77.6678 84.0391 82.6494 89.1188 83.5322 95.9612C84.4204 102.798 80.8659 108.821 75.6108 109.406C70.3501 109.983 65.3754 104.908 64.4927 98.0652Z" fill="#E4B692"/>
<path d="M129.012 93.0519C129.012 69.4646 116.023 56.0519 100.001 56.0519V135.763C116.023 135.763 129.012 116.641 129.012 93.0519Z" fill="#E4B692"/>
<path d="M64.7842 200H100.001H135.072V161.916H64.7842V200Z" fill="white"/>
<path d="M93.1928 200L86.6391 144.731C71.9747 147.033 55.3584 155.395 52.1105 161.549C47.3458 178.484 43.3603 200 43.3603 200H93.1928Z" fill="#AA2600"/>
<path d="M109.601 200H156.641C156.641 200 153.949 176.929 147.891 161.55C142.603 152.128 121.699 147.025 114.415 144.879L109.601 200Z" fill="#AA2600"/>
<path d="M99.9275 68.6357C99.9275 68.6357 93.6763 82.1217 84.8694 86.3642C70.9897 93.0533 83.032 103.265 81.4157 116.882C79.9583 129.168 65.6877 134.774 74.0124 147.985C59.5415 150.835 60.2322 143.546 60.2322 143.546C60.2322 143.546 58.8507 105.604 58.5054 104.734C58.16 103.863 66.7942 80.3782 66.7942 80.3782L79.2109 53.7849L101.419 49.291L99.9275 68.6357Z" fill="#231307"/>
<path d="M99.9275 68.6357C99.9275 68.6357 100.626 79.2261 111.282 80.1476C121.94 81.069 123.321 88.8757 121.249 95.9088C119.177 102.942 118.254 106.857 124.012 112.383C129.767 117.909 123.321 139.247 123.321 139.247L144.505 129.166C144.505 129.166 139.986 112.032 142.433 102.482C144.879 92.9317 133.912 86.1349 131.149 79.2275C128.386 72.3201 114.514 47.3984 103.29 49.291C92.0627 51.1836 93.1928 63.1098 93.1928 63.1098L99.9275 68.6357Z" fill="#231307"/>
</svg>
