<svg width="60" height="100" viewBox="0 0 60 100" fill="none" xmlns="http://www.w3.org/2000/svg">
<path d="M58.1274 38.0455C57.1793 38.0455 56.411 38.814 56.411 39.7619V50.2554C56.411 64.8616 44.528 76.7444 29.9218 76.7444C15.3159 76.7444 3.43287 64.8616 3.43287 50.2554V39.7619C3.43287 38.814 2.66434 38.0455 1.71643 38.0455C0.768528 38.0455 0 38.814 0 39.7619V50.2554C0 64.5539 10.0819 76.5399 23.5096 79.4833L22.4328 87.5434H15.1917C10.537 87.5434 6.74973 91.3304 6.74973 95.9853C6.74973 98.1989 8.55059 100 10.7642 100H49.0794C51.293 100 53.0941 98.1991 53.0941 95.9853C53.0941 91.3304 49.3071 87.5434 44.652 87.5434H37.411L36.3343 79.4833C49.7619 76.5396 59.8439 64.5536 59.8439 50.2554V39.7619C59.8441 38.814 59.0756 38.0455 58.1274 38.0455ZM49.661 95.9855C49.661 96.3063 49.4002 96.5671 49.0794 96.5671H10.7642C10.4437 96.5671 10.1828 96.3063 10.1828 95.9855C10.1828 93.2237 12.4298 90.9767 15.1917 90.9767H44.652C47.4138 90.9767 49.661 93.2237 49.661 95.9855ZM33.9477 87.5436H25.8961L26.9003 80.0258C27.8942 80.126 28.9021 80.1775 29.9218 80.1775C30.9416 80.1775 31.9496 80.1258 32.9435 80.0256L33.9477 87.5436Z" fill="black"/>
<path d="M13.1945 60.7453C14.0275 60.2928 14.336 59.2506 13.8836 58.4176C12.4443 55.7681 11.6835 52.7621 11.6835 49.7251V47.0592H48.1606V49.7251C48.1606 59.7819 39.9786 67.9636 29.922 67.9636C25.8202 67.9636 21.9464 66.6343 18.7197 64.1192C17.9724 63.5364 16.8937 63.67 16.3107 64.4177C15.7277 65.1655 15.8613 66.244 16.6093 66.8268C20.4446 69.8164 25.0482 71.3967 29.922 71.3967C41.8719 71.3967 51.5937 61.6749 51.5937 49.7251C51.5937 45.5335 51.5937 25.2004 51.5937 21.6716C51.5937 9.72203 41.8719 0 29.922 0C17.9724 0 8.25064 9.7218 8.25064 21.6716V49.7251C8.25064 53.3328 9.1553 56.9052 10.8669 60.0562C11.3195 60.8895 12.361 61.1979 13.1945 60.7453ZM29.9218 3.4331C38.7261 3.4331 46.0932 9.70419 47.7915 18.0141H36.8184C35.8703 18.0141 35.102 18.7826 35.102 19.7305C35.102 20.6784 35.8705 21.447 36.8184 21.447H48.1546C48.1556 21.522 48.1604 21.5961 48.1604 21.6714V25.9977H36.8184C35.8703 25.9977 35.102 26.7663 35.102 27.7142C35.102 28.6621 35.8705 29.4306 36.8184 29.4306H48.1604V33.9814H36.8184C35.8703 33.9814 35.102 34.7499 35.102 35.6978C35.102 36.6457 35.8705 37.4142 36.8184 37.4142H48.1604V43.6254H11.6835V37.4142H23.0252C23.9733 37.4142 24.7416 36.6457 24.7416 35.6978C24.7416 34.7499 23.9731 33.9814 23.0252 33.9814H11.6835V29.4306H23.0252C23.9733 29.4306 24.7416 28.6621 24.7416 27.7142C24.7416 26.7663 23.9731 25.9977 23.0252 25.9977H11.6835V21.6716C11.6835 21.5964 11.6883 21.5222 11.6892 21.4472H23.0252C23.9733 21.4472 24.7416 20.6787 24.7416 19.7308C24.7416 18.7828 23.9731 18.0143 23.0252 18.0143H12.0521C13.7507 9.70419 21.1175 3.4331 29.9218 3.4331Z" fill="black"/>
</svg>
