<svg width="200" height="200" viewBox="0 0 200 200" fill="none" xmlns="http://www.w3.org/2000/svg">
<path d="M100 199.999C155.228 199.999 200 155.227 200 99.9993C200 44.7712 155.228 0 100 0C44.7722 0 0.00100708 44.7712 0.00100708 99.9993C0.00100708 155.227 44.7722 199.999 100 199.999Z" fill="#A6D9EA"/>
<path d="M147.891 161.549C141.445 149.347 100.001 141.689 100.001 141.689C100.001 141.689 58.5565 149.347 52.1106 161.549C47.3459 178.484 43.3603 200 43.3603 200H100.001H156.641C156.641 200 153.949 176.929 147.891 161.549Z" fill="#855732"/>
<path d="M100.001 141.689C100.001 141.689 141.445 149.347 147.891 161.549C153.95 176.929 156.641 200 156.641 200H100.001V141.689Z" fill="#855732"/>
<path d="M111.283 116.881H88.7182V154.645H111.283V116.881Z" fill="#855732"/>
<path d="M111.283 116.881H100.001V154.645H111.283V116.881Z" fill="#855732"/>
<path opacity="0.1" d="M88.7182 134.38C90.7476 140.206 98.937 143.545 104.952 143.545C107.128 143.545 109.244 143.18 111.283 142.513V116.881H88.7182V134.38Z" fill="#DDAC8C"/>
<path d="M129.012 93.0519C129.012 69.4646 116.023 56.0519 100.001 56.0519C83.9784 56.0519 70.9898 69.4646 70.9898 93.0519C70.9898 124.779 83.9784 135.763 100.001 135.763C116.022 135.763 129.012 123.457 129.012 93.0519Z" fill="#855732"/>
<path d="M124.595 109.408C119.336 108.859 115.785 103.192 116.676 96.7597C117.556 90.322 122.537 85.5422 127.799 86.0892C133.055 86.6363 136.6 92.3003 135.713 98.738C134.83 105.177 129.854 109.953 124.595 109.408Z" fill="#855732"/>
<path d="M64.4941 98.7394C63.6058 92.3017 67.152 86.6377 72.4058 86.0906C77.6692 85.5436 82.6508 90.3221 83.5335 96.7611C84.4218 103.193 80.8673 108.86 75.6122 109.41C70.3515 109.953 65.3755 105.177 64.4941 98.7394Z" fill="#855732"/>
<path d="M129.012 93.0519C129.012 69.4646 116.023 56.0519 100.001 56.0519V135.763C116.022 135.763 129.012 123.457 129.012 93.0519Z" fill="#855732"/>
<path d="M126.097 112.822C124.536 117.21 121.896 122.484 117.125 122.484C111.163 122.484 106.898 117.638 100.059 117.638C100.039 117.638 100.021 117.641 100.002 117.641C99.9814 117.641 99.9634 117.638 99.9427 117.638C93.1044 117.638 88.8412 122.484 82.876 122.484C78.1057 122.484 75.4671 117.21 73.9061 112.822L72.555 104.37V114.484C72.555 114.484 74.822 126.395 79.1722 129.273C82.7157 132.421 94.2828 137.814 99.9399 137.814H99.9413C99.9606 137.814 99.98 137.812 100.001 137.812C100.02 137.812 100.039 137.814 100.057 137.814H100.06C105.719 137.814 117.286 132.422 120.828 129.273C125.178 126.395 127.445 114.484 127.445 114.484V104.37L126.097 112.822Z" fill="#303030"/>
<path d="M85.9525 60.5651C85.9525 60.5651 91.3402 82.3745 121.362 93.4069C118.539 88.5317 118.026 82.63 118.026 82.63C118.026 82.63 122.901 87.7622 130.855 91.868C135.217 83.1453 140.349 70.0586 128.803 62.875C117.257 55.6899 89.8013 42.8588 85.9525 60.5651Z" fill="#303030"/>
<path d="M75.9465 91.611C75.9465 91.611 78.1748 66.7127 87.4514 61.2048C79.5383 57.7525 67.4795 68.2614 68.7615 74.6755C70.0448 81.0911 75.9465 91.611 75.9465 91.611Z" fill="#303030"/>
<path d="M147.891 161.549C144.125 154.424 128.437 148.852 116.027 145.447C115.541 153.888 108.564 160.588 100.001 160.588C91.4383 160.588 84.4605 153.888 83.9756 145.447C71.5658 148.852 55.8765 154.424 52.1106 161.549C47.3459 178.484 43.3603 200 43.3603 200H100.001H156.641C156.641 200 153.949 176.929 147.891 161.549Z" fill="#FB621E"/>
<path opacity="0.2" d="M83.0459 149.591C83.5598 158.032 90.941 164.732 99.9993 164.732C109.059 164.732 116.439 158.032 116.953 149.591C128.326 152.541 142.289 157.119 148.412 162.923C148.24 162.458 148.066 162 147.888 161.549C144.122 154.424 128.434 148.852 116.024 145.447C115.538 153.888 108.562 160.588 99.9979 160.588C91.4356 160.588 84.4577 153.888 83.9728 145.447C71.5631 148.852 55.8737 154.424 52.1078 161.549C51.9959 161.949 51.884 162.354 51.7721 162.757C57.9887 157.033 71.7813 152.512 83.0459 149.591Z" fill="#E53D0C"/>
<path d="M79.2551 146.808C80.8272 156.865 89.5029 164.568 100.001 164.568C110.499 164.568 119.174 156.865 120.746 146.808C119.142 146.321 117.559 145.868 116.027 145.448C115.541 153.889 108.564 160.589 100.001 160.589C91.4383 160.589 84.4605 153.889 83.9756 145.448C82.4422 145.868 80.859 146.321 79.2551 146.808Z" fill="#E53D0C"/>
<path d="M104.721 125.24C104.721 125.24 104.03 122.165 100.001 122.165C96.3163 122.165 95.2802 125.24 95.2802 125.24H104.721Z" fill="white"/>
</svg>
